<svg xmlns="http://www.w3.org/2000/svg" viewBox="0 0 512 512">
  <defs>
    <linearGradient id="bg" x1="0" y1="0" x2="1" y2="1">
      <stop offset="0" stop-color="#2563EB"/>
      <stop offset="1" stop-color="#0F766E"/>
    </linearGradient>
    <filter id="shadow" x="-20%" y="-20%" width="140%" height="140%">
      <feDropShadow dx="0" dy="14" stdDeviation="16" flood-color="#0F172A" flood-opacity="0.28"/>
    </filter>
  </defs>
  <rect width="512" height="512" rx="112" fill="url(#bg)"/>
  <circle cx="386" cy="126" r="42" fill="#F59E0B" opacity="0.95"/>
  <path filter="url(#shadow)" d="M102 258L416 112L313 412L248 300L102 258Z" fill="#FFFFFF"/>
  <path d="M248 300L416 112L207 270L248 300Z" fill="#DBEAFE"/>
  <path d="M248 300L223 390L283 334L248 300Z" fill="#BFDBFE"/>
  <path d="M102 258L207 270L416 112L102 258Z" fill="#F8FAFC"/>
  <path d="M125 407C164 372 202 372 241 407C280 442 318 442 357 407" fill="none" stroke="#FFFFFF" stroke-width="22" stroke-linecap="round" opacity="0.82"/>
</svg>
