<svg xmlns="http://www.w3.org/2000/svg" viewBox="0 0 800 600" role="img" aria-label="Travel placeholder">
  <defs>
    <linearGradient id="bg" x1="0" x2="1" y1="0" y2="1">
      <stop offset="0" stop-color="#60a5fa"/>
      <stop offset="1" stop-color="#f8fafc"/>
    </linearGradient>
  </defs>
  <rect width="800" height="600" fill="url(#bg)"/>
  <path d="M80 420c92-80 191-87 296-22 114-91 226-83 344 22v180H80z" fill="#bfdbfe"/>
  <path d="M280 384 420 146l140 238z" fill="#ffffff" opacity=".96"/>
  <path d="M420 146 560 384H425z" fill="#dbeafe"/>
  <path d="M117 193c36-42 90-43 126-3 31-18 70-12 94 16 31-16 71 0 84 34H107c0-18 3-33 10-47z" fill="#fff" opacity=".9"/>
  <path d="M608 192c25-29 64-29 89 0 22-13 51-8 68 13 22-9 49 3 58 27H601c0-15 2-28 7-40z" fill="#fff" opacity=".86"/>
</svg>
