<svg xmlns="http://www.w3.org/2000/svg" viewBox="0 0 800 600" role="img" aria-label="Sightseeing placeholder">
  <defs>
    <linearGradient id="sky" x1="0" x2="1" y1="0" y2="1">
      <stop offset="0" stop-color="#38bdf8"/>
      <stop offset="1" stop-color="#dbeafe"/>
    </linearGradient>
    <linearGradient id="hill" x1="0" x2="1">
      <stop offset="0" stop-color="#16a34a"/>
      <stop offset="1" stop-color="#86efac"/>
    </linearGradient>
  </defs>
  <rect width="800" height="600" fill="url(#sky)"/>
  <circle cx="660" cy="110" r="58" fill="#fef3c7"/>
  <path d="M0 430c120-92 222-92 335 0 94-86 190-98 285-34 58 39 113 59 180 46v158H0z" fill="url(#hill)"/>
  <path d="M192 407h238v119H192z" fill="#f8fafc"/>
  <path d="M166 407h290L311 300z" fill="#1d4ed8"/>
  <path d="M245 526V423h56v103zm84 0v-72h56v72z" fill="#93c5fd"/>
  <path d="M92 188c45-55 109-55 154 0 33-22 77-17 104 13 36-27 88-8 101 37H77c0-20 5-36 15-50z" fill="#fff" opacity=".86"/>
</svg>
