<svg xmlns="http://www.w3.org/2000/svg" viewBox="0 0 800 600" role="img" aria-label="Food placeholder">
  <defs>
    <linearGradient id="bg" x1="0" x2="1" y1="0" y2="1">
      <stop offset="0" stop-color="#fed7aa"/>
      <stop offset="1" stop-color="#eff6ff"/>
    </linearGradient>
  </defs>
  <rect width="800" height="600" fill="url(#bg)"/>
  <circle cx="400" cy="318" r="178" fill="#fff7ed"/>
  <circle cx="400" cy="318" r="125" fill="#fdba74"/>
  <path d="M330 292c34-50 104-54 144-8 29 33 24 88-12 116-36 28-91 24-124-10-27-28-31-67-8-98z" fill="#f97316"/>
  <path d="M201 139h26v300h-26zM250 139h26v300h-26zM201 256h75v33h-75z" fill="#0f172a" opacity=".78"/>
  <path d="M587 137c60 71 61 141 4 211v91h-37V137z" fill="#0f172a" opacity=".78"/>
  <circle cx="327" cy="238" r="26" fill="#bbf7d0"/>
  <circle cx="488" cy="383" r="22" fill="#bbf7d0"/>
</svg>
